Normalized EMG Linear Envelopes
nRows=119
nColumns=4

endheader
time	 med_gas_r	  soleus_r	 tib_ant_r	
2.79133	  0.003301	  0.004314	  0.001503	
2.8629	  0.003054	  0.004396	  0.001474	
2.93448	  0.002890	  0.004542	  0.001477	
3.00605	  0.002846	  0.004707	  0.001524	
3.07762	  0.002876	  0.004803	  0.001583	
3.14919	  0.002912	  0.004894	  0.001610	
3.22077	  0.002940	  0.005121	  0.001589	
3.29234	  0.003009	  0.005416	  0.001542	
3.36391	  0.003140	  0.005497	  0.001498	
3.43548	  0.003289	  0.005279	  0.001477	
3.50706	  0.003397	  0.004988	  0.001483	
3.57863	  0.003462	  0.004827	  0.001505	
3.6502	  0.003535	  0.004795	  0.001525	
3.72177	  0.003621	  0.004821	  0.001543	
3.79335	  0.003646	  0.004851	  0.001554	
3.86492	  0.003561	  0.004857	  0.001534	
3.93649	  0.003442	  0.004902	  0.001479	
4.00806	  0.003387	  0.005029	  0.001429	
4.07964	  0.003369	  0.005115	  0.001431	
4.15121	  0.003277	  0.005005	  0.001482	
4.22278	  0.003075	  0.004750	  0.001544	
4.29435	  0.002863	  0.004575	  0.001592	
4.36593	  0.002843	  0.004694	  0.001635	
4.4375	  0.003201	  0.005190	  0.001678	
4.50907	  0.003927	  0.005946	  0.001698	
4.58065	  0.004736	  0.006588	  0.001672	
4.65222	  0.004912	  0.006357	  0.001595	
4.72379	  0.003039	  0.003844	  0.001444	
4.79536	 -0.002530	 -0.002766	  0.001153	
4.86694	 -0.011352	 -0.013266	  0.000714	
4.93851	 -0.016546	 -0.020035	  0.000455	
5.01008	 -0.000610	 -0.002637	  0.001297	
5.08165	  0.061763	  0.069902	  0.004609	
5.15323	  0.180346	  0.211547	  0.010931	
5.2248	  0.317019	  0.376477	  0.018124	
5.29637	  0.403146	  0.477667	  0.022298	
5.36794	  0.409227	  0.475572	  0.021879	
5.43952	  0.367680	  0.410126	  0.018967	
5.51109	  0.322529	  0.341161	  0.016278	
5.58266	  0.293714	  0.299963	  0.014871	
5.65423	  0.284516	  0.287036	  0.014562	
5.72581	  0.289131	  0.285928	  0.014713	
5.79738	  0.294757	  0.283499	  0.014683	
5.86895	  0.293393	  0.280424	  0.014325	
5.94052	  0.289451	  0.281319	  0.014158	
6.0121	  0.291717	  0.285727	  0.014777	
6.08367	  0.302413	  0.291400	  0.016105	
6.15524	  0.315733	  0.297375	  0.017484	
6.22681	  0.326173	  0.303182	  0.018480	
6.29839	  0.335575	  0.309535	  0.019283	
6.36996	  0.347365	  0.317544	  0.020117	
6.44153	  0.357273	  0.322933	  0.020727	
6.5131	  0.357729	  0.316665	  0.020798	
6.58468	  0.349037	  0.298109	  0.020426	
6.65625	  0.339883	  0.279179	  0.019958	
6.72782	  0.338571	  0.270610	  0.019567	
6.7994	  0.345807	  0.272291	  0.019066	
6.87097	  0.353467	  0.278159	  0.018237	
6.94254	  0.351381	  0.284366	  0.017295	
7.01411	  0.339184	  0.289085	  0.016790	
7.08569	  0.329285	  0.289175	  0.017064	
7.15726	  0.335578	  0.283846	  0.017950	
7.22883	  0.361667	  0.277732	  0.018889	
7.3004	  0.398497	  0.276307	  0.019366	
7.37198	  0.434363	  0.283102	  0.019370	
7.44355	  0.466663	  0.300911	  0.019303	
7.51512	  0.489709	  0.324999	  0.019339	
7.58669	  0.483839	  0.339656	  0.019254	
7.65827	  0.444175	  0.335197	  0.018952	
7.72984	  0.397455	  0.318247	  0.018786	
7.80141	  0.371149	  0.297554	  0.019326	
7.87298	  0.371216	  0.275110	  0.020750	
7.94456	  0.392602	  0.254730	  0.022384	
8.01613	  0.430619	  0.245187	  0.023405	
8.0877	  0.480454	  0.250537	  0.023862	
8.15927	  0.532458	  0.265703	  0.024452	
8.23085	  0.572178	  0.282778	  0.025556	
8.30242	  0.587847	  0.296381	  0.026668	
8.37399	  0.577474	  0.304558	  0.026702	
8.44556	  0.547280	  0.305273	  0.025085	
8.51714	  0.506455	  0.293927	  0.022440	
8.58871	  0.467028	  0.272471	  0.020094	
8.66028	  0.438512	  0.254017	  0.018984	
8.73185	  0.417930	  0.249052	  0.019033	
8.80343	  0.400952	  0.257339	  0.019718	
8.875	  0.396987	  0.274245	  0.020853	
8.94657	  0.414483	  0.292848	  0.022314	
9.01815	  0.447874	  0.304627	  0.023700	
9.08972	  0.488229	  0.309052	  0.024779	
9.16129	  0.527029	  0.315520	  0.025525	
9.23286	  0.556282	  0.328126	  0.025991	
9.30444	  0.571770	  0.337626	  0.026550	
9.37601	  0.562381	  0.334478	  0.027206	
9.44758	  0.518037	  0.321389	  0.027135	
9.51915	  0.459885	  0.306396	  0.026001	
9.59073	  0.428711	  0.293445	  0.024581	
9.6623	  0.442372	  0.287853	  0.023663	
9.73387	  0.484122	  0.295917	  0.023403	
9.80544	  0.517046	  0.312530	  0.023397	
9.87702	  0.500458	  0.319984	  0.022671	
9.94859	  0.413387	  0.298009	  0.020122	
10.0202	  0.274720	  0.238708	  0.015648	
10.0917	  0.134316	  0.158354	  0.010504	
10.1633	  0.037100	  0.084781	  0.006173	
10.2349	 -0.006202	  0.034248	  0.003356	
10.3065	 -0.013656	  0.007704	  0.001967	
10.378	 -0.007424	 -0.001257	  0.001513	
10.4496	 -0.000380	 -0.001044	  0.001473	
10.5212	  0.003358	  0.001763	  0.001539	
10.5927	  0.004239	  0.004044	  0.001590	
10.6643	  0.003818	  0.005081	  0.001594	
10.7359	  0.003188	  0.005225	  0.001555	
10.8075	  0.002803	  0.005047	  0.001496	
10.879	  0.002695	  0.004868	  0.001443	
10.9506	  0.002720	  0.004735	  0.001410	
11.0222	  0.002756	  0.004629	  0.001410	
11.0937	  0.002771	  0.004542	  0.001451	
11.1653	  0.002772	  0.004463	  0.001535	
11.2369	  0.002764	  0.004384	  0.001644	
